<?xml version="1.0" encoding="utf-8"?>
<svg xmlns="http://www.w3.org/2000/svg" id="Capa_1" style="enable-background:new 0 0 512.001 512.001;" version="1.1" viewBox="0 0 512.001 512.001" x="0px" y="0px">
<path d="M255.399,302.59l-2.187-14.894l-117.506-0.507l-2.315,14.875&#xD;&#xA;	c-3.31,21.261-21.663,36.911-43.181,36.818l0,0c-12.749-0.055-23.128,10.235-23.183,22.984l-0.544,126.053&#xD;&#xA;	c-0.055,12.749,10.235,23.128,22.984,23.183L297.517,512c12.749,0.055,23.128-10.235,23.183-22.984l0.544-126.053&#xD;&#xA;	c0.055-12.749-10.235-23.128-22.984-23.183l0,0C276.743,339.686,258.525,323.879,255.399,302.59z" style="fill:#C6E7E4;"/>
<path d="M298.261,339.779L298.261,339.779c-21.517-0.093-39.735-15.9-42.861-37.189l-2.187-14.894&#xD;&#xA;	l-77.198-0.333c11.151,0.048,20.991,7.3,24.339,17.936l15.27,48.508c3.348,10.636,13.188,17.888,24.339,17.936l0,0&#xD;&#xA;	c14.156,0.061,25.582,11.587,25.521,25.743l-0.494,114.375l32.528,0.14c12.749,0.055,23.128-10.235,23.183-22.984l0.544-126.053&#xD;&#xA;	C321.3,350.213,311.009,339.834,298.261,339.779z" style="fill:#B4D7D3;"/>
<path d="M66.867,398.948l-0.384,88.971c-0.055,12.749,10.235,23.128,22.984,23.183L297.517,512&#xD;&#xA;	c12.749,0.055,23.128-10.235,23.183-22.984l0.384-88.971L66.867,398.948z" style="fill:#485070;"/>
<path d="M264.99,511.859l32.528,0.14c12.749,0.055,23.128-10.235,23.183-22.984l0.384-88.971l-55.612-0.24&#xD;&#xA;	L264.99,511.859z" style="fill:#38405B;"/>
<path d="M212.812,254.473C246.746,185.421,314.213,82.821,437.887,7.63L321.535,191.217&#xD;&#xA;	c-7.382,11.648-17.949,20.936-30.448,26.763L212.812,254.473z" style="fill:#FBEFBD;"/>
<path d="M444.406,3.667c-2.188-3.6-6.879-4.744-10.483-2.556c-47.086,28.627-89.963,63.6-127.441,103.948&#xD;&#xA;	c-29.975,32.27-56.582,68.029-79.079,106.285c-37.428,63.644-50.686,112.12-51.809,116.379L148.7,410.719&#xD;&#xA;	c-1.299,4.009,0.898,8.311,4.906,9.61c0.782,0.253,1.574,0.374,2.353,0.374c3.218,0,6.211-2.053,7.257-5.28l26.962-83.205&#xD;&#xA;	c0.047-0.145,0.09-0.295,0.129-0.442c4.388-16.934,20.597-62.382,50.538-113.185c5.709-9.687,11.694-19.204,17.93-28.544&#xD;&#xA;	l42.544-12.534c4.047-1.192,6.362-5.439,5.169-9.486c-1.192-4.046-5.436-6.362-9.486-5.169L272.76,170&#xD;&#xA;	c6.77-9.296,13.805-18.384,21.083-27.254l36.402-11.087c4.035-1.229,6.311-5.497,5.082-9.533c-1.229-4.036-5.497-6.312-9.534-5.082&#xD;&#xA;	l-13.314,4.055c1.799-1.988,3.611-3.963,5.435-5.925c5.732-6.163,11.609-12.182,17.596-18.084l20.503-5.881&#xD;&#xA;	c4.055-1.163,6.4-5.394,5.236-9.449c-0.643-2.245-2.228-3.96-4.202-4.851c26.282-23.405,54.651-44.425,84.805-62.757&#xD;&#xA;	C445.451,11.961,446.595,7.267,444.406,3.667z" style="fill:#BD7766;"/>
<path d="M266.718,305.743l-144.672-0.624c-5.031-0.022-9.091-4.117-9.07-9.148l0.057-13.173&#xD;&#xA;	c0.022-5.031,4.117-9.091,9.148-9.07l144.672,0.624c5.031,0.022,9.091,4.117,9.07,9.148l-0.057,13.173&#xD;&#xA;	C275.844,301.704,271.749,305.765,266.718,305.743z" style="fill:#B4D7D3;"/>
<g>
</g>
<g>
</g>
<g>
</g>
<g>
</g>
<g>
</g>
<g>
</g>
<g>
</g>
<g>
</g>
<g>
</g>
<g>
</g>
<g>
</g>
<g>
</g>
<g>
</g>
<g>
</g>
<g>
</g>
</svg>