<?xml version="1.0" encoding="UTF-8"?>
<svg version="1.1" xmlns="http://www.w3.org/2000/svg" width="2214" height="701">
<path d="M0 0 C44.88 0 89.76 0 136 0 C136.08060607 38.35057612 136.08060607 38.35057612 136.09765625 54.7265625 C136.10941095 65.92482397 136.12310879 77.12305435 136.15087891 88.32128906 C136.34937074 170.12076708 136.34937074 170.12076708 134 204 C133.95462852 204.66785019 133.90925705 205.33570038 133.86251068 206.02378845 C133.29961414 214.27555467 132.62217807 222.51315296 131.875 230.75 C131.69057537 232.86190677 131.50698614 234.97388666 131.32421875 237.0859375 C130.89223799 242.05817091 130.44967677 247.02933713 130 252 C131.65 252 133.3 252 135 252 C135.26683594 251.28070313 135.53367188 250.56140625 135.80859375 249.8203125 C147.96319232 221.04778735 176.31398312 201.47396781 204.09912109 190.14404297 C219.55415005 184.15063246 236.66893352 180.88677154 253.23046875 180.796875 C254.09482544 180.78981537 254.95918213 180.78275574 255.84973145 180.77548218 C291.81969778 180.54838072 291.81969778 180.54838072 307 184 C308.36680908 184.29801514 308.36680908 184.29801514 309.76123047 184.60205078 C345.00580946 192.46362354 375.2062768 209.68978952 395.640625 240.16015625 C403.67254659 252.93228455 410.48478952 266.59116656 415 281 C415.32774414 282.03713135 415.32774414 282.03713135 415.66210938 283.09521484 C422.7278645 306.07963968 425.1747287 330.47350216 425.12025452 354.43305969 C425.12069169 355.84258693 425.12156927 357.25211409 425.12284368 358.66164082 C425.12506002 362.49741341 425.12110698 366.33315762 425.11606562 370.1689266 C425.11171981 374.31938442 425.11321046 378.46984083 425.1139679 382.62030029 C425.11449052 389.7988402 425.11137106 396.97737097 425.10573006 404.15590858 C425.0975796 414.53468259 425.09499621 424.91345222 425.09374207 435.29222908 C425.09155711 452.13386811 425.08491212 468.97550228 425.07543945 485.81713867 C425.06625094 502.17065405 425.05917715 518.52416811 425.05493164 534.87768555 C425.05453756 536.39144969 425.05453756 536.39144969 425.05413551 537.93579493 C425.05283041 542.99887683 425.05156671 548.06195874 425.05032361 553.12504065 C425.03996831 595.08336475 425.02153935 637.04167986 425 679 C380.12 679 335.24 679 289 679 C288.96261719 657.02148438 288.92523438 635.04296875 288.88671875 612.3984375 C288.85643758 598.46223365 288.8254277 584.52603711 288.79101562 570.58984375 C288.7729681 563.26546278 288.75510453 555.94108139 288.73754883 548.61669922 C288.7342373 547.23989497 288.7342373 547.23989497 288.73085886 545.83527648 C288.69558209 531.05729172 288.67067125 516.27930699 288.64965298 501.50129585 C288.62781596 486.31152948 288.5946913 471.12181729 288.55129844 455.93209708 C288.52491715 446.57497619 288.50712251 437.21792267 288.50065396 427.86076649 C288.49535836 421.4260459 288.47900354 414.99140977 288.45433434 408.55673461 C288.44046055 404.85583116 288.43109458 401.15507835 288.43499184 397.45414734 C288.45172886 377.5101176 288.16224433 357.31756752 282.3125 338.0625 C282.05758789 337.2060791 281.80267578 336.3496582 281.54003906 335.46728516 C276.68920894 319.9672312 268.35553206 305.22669542 253.64453125 297.2109375 C235.20232733 288.76620602 213.77788847 288.86216565 194.6171875 295.1015625 C173.6755318 303.40324187 161.04889348 317.65510455 152.0703125 337.953125 C143.29313011 358.78988246 139.80616699 381.57432181 138 404 C137.87622026 405.5139246 137.87622026 405.5139246 137.74993992 407.05843353 C136.8253937 419.89815373 136.82554357 432.72383948 136.79467773 445.59179688 C136.78508161 448.14585014 136.77507056 450.69990187 136.76467896 453.25395203 C136.7433552 458.72177101 136.72487577 464.18958741 136.70907402 469.65742493 C136.68622315 477.56269897 136.65810276 485.46794761 136.62875474 493.37319988 C136.58126356 506.20337846 136.53795023 519.03356754 136.49731445 531.86376953 C136.4578649 544.31657729 136.41640574 556.76937574 136.37231445 569.22216797 C136.36956495 569.99941329 136.36681544 570.77665862 136.36398262 571.57745683 C136.34245959 577.65731271 136.32082115 583.73716818 136.29914629 589.81702352 C136.19319588 619.54466345 136.09729809 649.27232805 136 679 C91.12 679 46.24 679 0 679 C0 454.93 0 230.86 0 0 Z " fill="#FF914D" transform="translate(26,13)"/>
<path d="M0 0 C44.88 0 89.76 0 136 0 C136.24198809 73.17002973 136.24198809 73.17002973 136.29296875 104.44140625 C136.30470492 111.59130945 136.31682464 118.74121184 136.32958984 125.89111328 C136.33117234 126.78646644 136.33275483 127.6818196 136.33438528 128.60430467 C136.35688682 141.06124574 136.39372314 153.51806984 136.44240597 165.97493505 C136.52640613 187.4728564 136.58164563 208.97065457 136.5859375 230.46875 C136.58616893 231.3070551 136.58640036 232.1453602 136.58663881 233.00906849 C136.59644717 286.11875975 135.34025224 338.90980163 130.90512466 391.86772156 C130.84413704 392.59657452 130.78314941 393.32542748 130.72031367 394.0763669 C130.55813978 395.99365121 130.39188217 397.91058893 130.22525978 399.82749176 C130.0307018 402.56760273 129.95488347 405.25481862 130 408 C133.95096557 402.17182712 137.8973507 396.34057156 141.84082031 390.50732422 C143.17802627 388.53040356 144.51621379 386.55414642 145.85546875 384.57861328 C152.66287135 374.53565631 159.45578717 364.49984594 165.79684448 354.15356445 C172.79830687 342.73509724 180.9922205 332.42861322 189.5546875 322.16015625 C192.62586087 318.47084777 195.61363866 314.7249387 198.5625 310.9375 C205.13578869 302.50735693 211.90651566 294.23996616 218.66601562 285.95898438 C224.79009662 278.45320708 230.87423668 270.92374878 236.83642578 263.28857422 C240.87934101 258.12351988 245.01861851 253.03982866 249.16625977 247.95874023 C252.63893482 243.69689091 256.05826306 239.39868899 259.4375 235.0625 C264.11424467 229.06526272 268.9372907 223.19732474 273.78857422 217.34082031 C278.06200988 212.17025789 282.24607566 206.93785224 286.36132812 201.640625 C287.56801132 200.08890286 288.78389755 198.54435124 290 197 C290.57505783 195.9611264 291.15011566 194.92225281 291.74259949 193.85189819 C293.72477027 191.51716065 294.82659911 191.03260293 297.88016701 190.45846939 C301.76772933 190.2580613 305.63095378 190.25757825 309.52075195 190.31884766 C311.01900667 190.32054078 312.51726636 190.31958878 314.01551819 190.31619263 C318.07751323 190.31447198 322.13844394 190.3497318 326.20019174 190.39163637 C330.44689799 190.42915955 334.69362901 190.43266996 338.94047546 190.43978882 C346.97996871 190.4584331 355.01897207 190.50766416 363.05824965 190.56788576 C372.21168925 190.63496414 381.36515232 190.66794319 390.51877654 190.69805837 C409.34612871 190.76076382 428.17302496 190.86629043 447 191 C446.17643056 194.86487189 444.69283409 196.89904863 442.125 199.9375 C441.31289062 200.90558594 440.50078125 201.87367188 439.6640625 202.87109375 C438.77651865 203.91446843 437.88848638 204.95742782 437 206 C436.09075005 207.07388376 435.18190005 208.14810629 434.2734375 209.22265625 C432.87979973 210.87024251 431.48542069 212.51716385 430.08837891 214.16186523 C427.18859047 217.57864279 424.32913647 221.02420377 421.5 224.5 C417.75212202 229.1045358 413.93016556 233.64019191 410.0859375 238.1640625 C407.18755177 241.5805954 404.328449 245.02504838 401.5 248.5 C397.75212202 253.1045358 393.93016556 257.64019191 390.0859375 262.1640625 C387.18755177 265.5805954 384.328449 269.02504838 381.5 272.5 C377.75212202 277.1045358 373.93016556 281.64019191 370.0859375 286.1640625 C367.18755177 289.5805954 364.328449 293.02504838 361.5 296.5 C357.75212202 301.1045358 353.93016556 305.64019191 350.0859375 310.1640625 C347.18755177 313.5805954 344.328449 317.02504838 341.5 320.5 C337.75212202 325.1045358 333.93016556 329.64019191 330.0859375 334.1640625 C327.18755177 337.5805954 324.328449 341.02504838 321.5 344.5 C317.75212202 349.1045358 313.93016556 353.64019191 310.0859375 358.1640625 C307.18755177 361.5805954 304.328449 365.02504838 301.5 368.5 C298.21176205 372.53983519 294.87266822 376.53081733 291.5 380.5 C286.59519561 386.27514993 281.73841497 392.08685299 277 398 C276.38125 398.65871094 275.7625 399.31742187 275.125 399.99609375 C273.71393741 401.97965511 273.71393741 401.97965511 274.55859375 404.359375 C276.23953502 407.43882296 278.08426538 410.35708908 280.0625 413.25 C280.49167725 413.88566895 280.92085449 414.52133789 281.36303711 415.17626953 C282.90358916 417.4543453 284.45175766 419.72714423 286 422 C287.2814661 423.88787417 288.56270244 425.7759043 289.84375 427.6640625 C293.10283224 432.46417184 296.36677953 437.26094683 299.6330719 442.05615234 C303.59207906 447.8684814 307.54609666 453.68419841 311.5 459.5 C312.91924409 461.58725777 314.33851495 463.67449733 315.7578125 465.76171875 C316.45938477 466.79345215 317.16095703 467.82518555 317.88378906 468.88818359 C319.98218052 471.97379705 322.08089143 475.05919299 324.1796875 478.14453125 C332.02874939 489.68382373 339.87069665 501.22790338 347.70544434 512.7769165 C355.43103104 524.16473371 363.1673066 535.54525909 370.90722656 546.92333984 C374.43874786 552.11515405 377.96932206 557.30761225 381.5 562.5 C382.91666222 564.58333636 384.33332888 566.66666969 385.75 568.75 C407 600 407 600 428.25 631.25 C428.95253906 632.28294189 429.65507813 633.31588379 430.37890625 634.38012695 C431.78331926 636.44584908 433.1869759 638.51208564 434.58984375 640.57885742 C437.91185514 645.47101409 441.24147253 650.35746799 444.59802246 655.22598267 C446.18624481 657.53061317 447.77016781 659.83818227 449.35375977 662.14599609 C450.47579133 663.77730333 451.604041 665.40432814 452.73242188 667.03125 C453.40853516 668.01738281 454.08464844 669.00351562 454.78125 670.01953125 C455.38001953 670.88682861 455.97878906 671.75412598 456.59570312 672.64770508 C457.91357837 674.85523775 458.44941361 676.52511256 459 679 C438.83343314 679.35084741 418.66748772 679.61512603 398.49849892 679.77718258 C389.1328882 679.85443951 379.76917654 679.95970065 370.40478516 680.1315918 C362.23985234 680.28139407 354.0762948 680.37793849 345.91002595 680.41132742 C341.58757278 680.43084006 337.26905264 680.47646261 332.94786453 680.58595085 C306.67735969 681.2262665 306.67735969 681.2262665 300.60797119 677.55187035 C297.0843849 674.18133713 295.19497376 670.44745074 293.6758604 665.86202431 C292.63089736 662.98310646 290.94381588 660.58216927 289.234375 658.05859375 C288.07086479 656.1861693 286.90942997 654.31245373 285.75 652.4375 C280.8509631 644.55841814 275.92498646 636.69842551 270.9375 628.875 C270.36563965 627.97797363 269.7937793 627.08094727 269.20458984 626.15673828 C268.05089363 624.34796901 266.8969227 622.53937493 265.74267578 620.73095703 C262.78347562 616.0935778 259.82893373 611.45323512 256.875 606.8125 C256.29371338 605.89927979 255.71242676 604.98605957 255.11352539 604.04516602 C248.89759303 594.2747783 242.71815391 584.4814636 236.54101562 574.68652344 C230.12052485 564.50717391 223.67724978 554.34275863 217.21142578 544.19213867 C213.95078111 539.07140974 210.69752409 533.94619905 207.45849609 528.81176758 C206.49360097 527.28237489 205.52779467 525.75355665 204.56103516 524.2253418 C201.7627358 519.80133256 198.98076506 515.36768136 196.2109375 510.92578125 C194.93243732 508.88792945 193.65379391 506.8501675 192.375 504.8125 C191.77042969 503.83667969 191.16585938 502.86085938 190.54296875 501.85546875 C189.97964844 500.96085937 189.41632813 500.06625 188.8359375 499.14453125 C188.33626465 498.34378174 187.8365918 497.54303223 187.32177734 496.71801758 C186.88559082 496.15107178 186.4494043 495.58412598 186 495 C182.57553543 495 180.03514443 497.58335987 177.3125 499.5 C176.62422119 499.97904785 175.93594238 500.4580957 175.22680664 500.95166016 C173.68209088 502.02737504 172.13880518 503.10514534 170.59667969 504.18457031 C167.75896977 506.16851267 164.9151412 508.14346749 162.0703125 510.1171875 C158.09631142 512.87567487 154.12279218 515.63483832 150.15234375 518.3984375 C149.26659668 519.01428711 148.38084961 519.63013672 147.46826172 520.26464844 C145.27175666 521.80893706 143.10496113 523.38671556 140.94140625 524.9765625 C138 527 138 527 136 527 C136 577.16 136 627.32 136 679 C91.12 679 46.24 679 0 679 C0 454.93 0 230.86 0 0 Z " fill="#FF914D" transform="translate(1532,13)"/>
<path d="M0 0 C0.92942413 0.00182281 1.85884827 0.00364563 2.81643677 0.00552368 C16.19807767 0.04975884 29.27001468 0.35236992 42.375 3.3125 C43.15133789 3.47878906 43.92767578 3.64507812 44.72753906 3.81640625 C67.50815865 8.81093917 88.66871538 17.95713384 106.375 33.3125 C107.19355469 33.99828125 108.01210937 34.6840625 108.85546875 35.390625 C143.36390782 65.13743449 155.63249573 111.53067686 159.10148835 155.21995902 C159.9653377 167.23064434 159.77166345 179.30485949 159.72319686 191.33847654 C159.70997305 195.47774464 159.7146441 199.61700328 159.71690369 203.75628662 C159.71846017 210.89092249 159.70922379 218.02547467 159.69219017 225.16008949 C159.66758021 235.4749315 159.65997271 245.78973395 159.6562262 256.10460212 C159.64969575 272.84864753 159.62982821 289.59264855 159.60131836 306.33666992 C159.57368879 322.58080832 159.55249905 338.82493457 159.53979492 355.0690918 C159.53900675 356.07406432 159.53821858 357.07903684 159.53740653 358.11446307 C159.53349079 363.15721475 159.52969982 368.19996652 159.52597082 373.24271834 C159.49498126 414.93268502 159.43973643 456.62256939 159.375 498.3125 C114.495 498.3125 69.615 498.3125 23.375 498.3125 C23.33761719 476.25019531 23.30023437 454.18789063 23.26171875 431.45703125 C23.23143886 417.4706972 23.20042997 403.48437046 23.16601562 389.49804688 C23.1479679 382.14770561 23.13010429 374.79736394 23.11254883 367.44702148 C23.1092373 366.06532321 23.1092373 366.06532321 23.10585886 364.65571183 C23.07057494 349.82209585 23.04566811 334.98847992 23.02465298 320.15483765 C23.00282169 304.90970559 22.96970235 289.66462757 22.92629844 274.41954154 C22.89990738 265.02710188 22.88211988 255.63472943 22.87565396 246.24225458 C22.8703614 239.78464768 22.85401645 233.32712504 22.82933434 226.86956344 C22.81545039 223.1546071 22.80609854 219.43980112 22.80999184 215.72481728 C22.83536497 185.11716386 21.61836583 149.93833693 0.56640625 125.42578125 C-11.59487095 113.69806117 -27.53203887 109.93486016 -43.93481445 110.01000977 C-64.2040977 110.49064238 -82.27472171 116.75665916 -97.375 130.5 C-114.51324986 149.07701652 -121.07579216 175.1039258 -124.8125 199.375 C-124.96750977 200.37080078 -125.12251953 201.36660156 -125.28222656 202.39257812 C-128.29295788 223.500494 -128.92568117 244.75056847 -128.94384766 266.03955078 C-128.95317694 268.59508063 -128.96334989 271.15060752 -128.97428894 273.70613098 C-128.9957221 279.14649675 -129.01145884 284.58682799 -129.02165604 290.02722549 C-129.03640881 297.89255714 -129.06198851 305.75782621 -129.08998732 313.62312053 C-129.1351589 326.39228493 -129.17189416 339.1614585 -129.203125 351.93066406 C-129.23343334 364.31512048 -129.26786051 376.69955454 -129.30761719 389.08398438 C-129.3100987 389.85854973 -129.3125802 390.63311508 -129.31513691 391.43115211 C-129.33458319 397.49115971 -129.35426397 403.55116655 -129.37401867 409.61117315 C-129.47034316 439.1782547 -129.54626479 468.74535626 -129.625 498.3125 C-174.505 498.3125 -219.385 498.3125 -265.625 498.3125 C-265.625 337.2725 -265.625 176.2325 -265.625 10.3125 C-231.305 10.3125 -196.985 10.3125 -161.625 10.3125 C-159.76705173 14.64771264 -158.18544586 18.41109789 -156.9074707 22.84887695 C-156.60738602 23.88297195 -156.30730133 24.91706696 -155.99812317 25.98249817 C-155.68550034 27.07753159 -155.3728775 28.172565 -155.05078125 29.30078125 C-154.72208542 30.44032761 -154.39338959 31.57987396 -154.05473328 32.75395203 C-153.36432269 35.15118274 -152.67611658 37.54904932 -151.98999023 39.94750977 C-150.93568865 43.631329 -149.87365869 47.31285541 -148.81054688 50.99414062 C-148.14016928 53.32538983 -147.47023185 55.65676567 -146.80078125 57.98828125 C-146.48208572 59.09343582 -146.1633902 60.19859039 -145.83503723 61.3372345 C-145.54440903 62.3555687 -145.25378082 63.37390289 -144.9543457 64.4230957 C-144.69692093 65.32131546 -144.43949615 66.21953522 -144.17427063 67.14497375 C-143.625 69.3125 -143.625 69.3125 -143.625 71.3125 C-141.645 71.3125 -139.665 71.3125 -137.625 71.3125 C-137.37621094 70.61253906 -137.12742187 69.91257812 -136.87109375 69.19140625 C-125.48740418 42.89115793 -96.85251086 23.04203162 -71.1953125 12.4375 C-62.91741751 9.17055112 -54.52133356 6.59711164 -45.875 4.5 C-45.07304199 4.30510986 -44.27108398 4.11021973 -43.44482422 3.90942383 C-28.96806336 0.60814037 -14.77643444 -0.06001668 0 0 Z " fill="#FF914D" transform="translate(1348.625,193.6875)"/>
<path d="M0 0 C44.88 0 89.76 0 136 0 C136 224.07 136 448.14 136 679 C91.12 679 46.24 679 0 679 C0 454.93 0 230.86 0 0 Z " fill="#FF914D" transform="translate(759,13)"/>
<path d="M0 0 C44.88 0 89.76 0 136 0 C136 161.04 136 322.08 136 488 C91.12 488 46.24 488 0 488 C0 326.96 0 165.92 0 0 Z " fill="#FF914D" transform="translate(921,204)"/>
<path d="M0 0 C44.88 0 89.76 0 136 0 C136 161.04 136 322.08 136 488 C91.12 488 46.24 488 0 488 C0 326.96 0 165.92 0 0 Z " fill="#FF914D" transform="translate(475,204)"/>
<path d="M0 0 C11.67163501 8.86080548 18.55729362 25.1459477 20.484375 39.19140625 C22.1992656 60.00827264 20.18924965 79.30110614 7.59375 96.5859375 C-4.1385747 110.33605564 -19.65944584 116.18636268 -37.234375 118.60546875 C-42.50939838 119.01338725 -47.75914954 119.09165267 -53.046875 119.04296875 C-53.74204224 119.0402597 -54.43720947 119.03755066 -55.15344238 119.03475952 C-75.81138754 118.91304361 -94.81660241 115.19405314 -110.3203125 100.6484375 C-123.42628511 87.11564203 -127.41607934 68.92281281 -127.234375 50.60546875 C-126.61006434 32.29484829 -122.22258689 15.41870911 -108.78125 2.19140625 C-80.33392603 -21.69361105 -30.23163084 -18.86834302 0 0 Z " fill="#FF914D" transform="translate(1042.234375,27.39453125)"/>
<path d="M0 0 C11.67163501 8.86080548 18.55729362 25.1459477 20.484375 39.19140625 C22.1992656 60.00827264 20.18924965 79.30110614 7.59375 96.5859375 C-4.1385747 110.33605564 -19.65944584 116.18636268 -37.234375 118.60546875 C-42.50939838 119.01338725 -47.75914954 119.09165267 -53.046875 119.04296875 C-53.74204224 119.0402597 -54.43720947 119.03755066 -55.15344238 119.03475952 C-75.81138754 118.91304361 -94.81660241 115.19405314 -110.3203125 100.6484375 C-123.42628511 87.11564203 -127.41607934 68.92281281 -127.234375 50.60546875 C-126.61006434 32.29484829 -122.22258689 15.41870911 -108.78125 2.19140625 C-80.33392603 -21.69361105 -30.23163084 -18.86834302 0 0 Z " fill="#FF914D" transform="translate(596.234375,27.39453125)"/>
<path d="M0 0 C1.09159424 0.00829834 2.18318848 0.01659668 3.30786133 0.02514648 C21.80602824 0.41043926 37.90833221 7.05117228 51.6875 19.4375 C52.60402344 20.21480469 52.60402344 20.21480469 53.5390625 21.0078125 C67.46666141 33.66348457 74.65993751 53.07977756 75.97265625 71.421875 C76.68623201 92.20160613 70.13693066 110.75433523 56.6875 126.4375 C55.76710938 127.52611328 55.76710938 127.52611328 54.828125 128.63671875 C43.60548495 140.84253881 26.39095555 149.36167258 9.86694336 150.65893555 C-13.89894637 151.56608964 -32.84408262 147.28185266 -51.3125 131.4375 C-66.93331569 116.55414771 -74.93131792 97.16274098 -75.625 75.6875 C-75.1847955 54.64022225 -67.21823568 36.17296025 -52.84765625 20.81640625 C-38.30091088 7.16622454 -19.89789407 -0.19710105 0 0 Z M-42.3125 35.4375 C-42.87324219 35.97761719 -43.43398437 36.51773438 -44.01171875 37.07421875 C-53.5564985 47.01982914 -58.16779129 61.76822964 -58.75 75.25 C-58.22556665 92.48789621 -51.36851685 106.33873132 -39.3125 118.4375 C-38.50039062 119.28441406 -38.50039062 119.28441406 -37.671875 120.1484375 C-27.2416015 130.10460766 -12.68392652 134.18587256 1.390625 134.52734375 C14.27220886 133.97405986 25.05181268 129.62224622 35.6875 122.4375 C35.6875 122.1075 35.6875 121.7775 35.6875 121.4375 C28.0975 121.4375 20.5075 121.4375 12.6875 121.4375 C12.0275 119.4575 11.3675 117.4775 10.6875 115.4375 C9.6422435 113.2534978 8.55316206 111.09012757 7.4296875 108.9453125 C7.12177277 108.35450897 6.81385803 107.76370544 6.49661255 107.15499878 C5.52270491 105.28863872 4.54272261 103.42554976 3.5625 101.5625 C2.8967295 100.28927467 2.23136096 99.01583907 1.56640625 97.7421875 C-0.05525741 94.63818121 -1.68238093 91.53707584 -3.3125 88.4375 C-4.3025 88.4375 -5.2925 88.4375 -6.3125 88.4375 C-6.3125 99.3275 -6.3125 110.2175 -6.3125 121.4375 C-14.5625 121.4375 -22.8125 121.4375 -31.3125 121.4375 C-31.3125 91.0775 -31.3125 60.7175 -31.3125 29.4375 C16.74373109 30.63890578 16.74373109 30.63890578 25.0625 38.60546875 C30.87034331 45.15325364 31.00896878 52.81112993 30.88671875 61.15234375 C30.42685277 68.73562392 28.70296719 72.8709163 23 78 C21.56730988 79.1518417 20.13056488 80.29868306 18.6875 81.4375 C22.21296698 88.74873011 26.10580238 95.7730597 30.25 102.75 C30.81396484 103.71228516 31.37792969 104.67457031 31.95898438 105.66601562 C34.62178638 110.16630673 37.23730344 114.48116213 40.6875 118.4375 C53.02979789 104.97571931 59.30373605 90.42813587 58.92578125 72.0078125 C57.96663453 57.6363354 51.74340501 42.11141689 40.6875 32.4375 C14.69414055 11.85942377 -18.48737729 10.90513802 -42.3125 35.4375 Z M-6.3125 48.4375 C-6.3125 55.3675 -6.3125 62.2975 -6.3125 69.4375 C1.14849018 69.19523363 1.14849018 69.19523363 4.1875 66.5 C6.28655837 62.21442249 6.5345796 58.13077886 5.6875 53.4375 C4.85455325 51.04596326 4.85455325 51.04596326 2.6875 49.4375 C-0.2825 49.1075 -3.2525 48.7775 -6.3125 48.4375 Z " fill="#FF914D" transform="translate(2108.3125,9.5625)"/>
</svg>
